<?xml version="1.0" encoding="UTF-8"?>
<svg id="Laag_1" data-name="Laag 1" xmlns="http://www.w3.org/2000/svg" viewBox="0 0 322.75 268.57">
  <defs>
    <style>
      .cls-1 {
        fill: #3c3c3b;
      }

      .cls-1, .cls-2 {
        stroke-width: 0px;
      }

      .cls-2 {
        fill: #b9d79b;
      }
    </style>
  </defs>
  <g>
    <path class="cls-1" d="M28.21,197.29c0-.23.17-.42.42-.42h.51c.23,0,.42.19.42.42v5.06l5.46-5.3c.07-.09.23-.17.33-.17h.86c.31,0,.49.35.21.61l-5.53,5.27,5.79,5.83c.12.12.09.54-.3.54h-.89c-.12,0-.28-.07-.32-.12l-5.62-5.76v5.46c0,.23-.19.42-.42.42h-.51c-.25,0-.42-.19-.42-.42v-11.41Z"/>
    <path class="cls-1" d="M38.07,198.01c0-.56.42-.98.95-.98s.96.42.96.98c0,.51-.42.94-.96.94s-.95-.44-.95-.94ZM38.41,201.42c0-.19.17-.38.38-.38h.53c.19,0,.38.19.38.38v7.32c0,.21-.19.38-.38.38h-.53c-.21,0-.38-.17-.38-.38v-7.32Z"/>
    <path class="cls-1" d="M42.43,201.42c0-.19.17-.38.38-.38h.28c.17,0,.28.07.32.25l.17.61s1.03-1.03,2.71-1.03c2.34,0,2.92,1.52,2.92,3.61v4.27c0,.21-.19.38-.39.38h-.52c-.21,0-.39-.17-.39-.38v-4.45c0-1.54-.52-2.26-1.71-2.26-1.52,0-2.49,1.12-2.49,1.12v5.58c0,.21-.19.38-.38.38h-.53c-.21,0-.38-.17-.38-.38v-7.32Z"/>
    <path class="cls-1" d="M55.28,200.86c2.12,0,3.66,1.56,3.66,3.67,0,.14-.02.35-.03.49-.02.21-.19.35-.37.35h-5.88c.04,1.35,1.17,2.76,2.64,2.76,1.07,0,1.73-.37,2.19-.67.28-.19.4-.26.61.05l.21.3c.16.25.23.33-.07.56-.49.39-1.56.93-2.96.93-2.45,0-3.92-1.92-3.92-4.24s1.47-4.22,3.92-4.22ZM57.64,204.35c-.04-1.19-.98-2.31-2.36-2.31s-2.45,1.05-2.61,2.31h4.97Z"/>
    <path class="cls-1" d="M60.63,208.34c-.09-.09-.12-.21-.05-.35l.25-.46c.1-.19.25-.26.47-.1.28.21.98.72,2.01.72.82,0,1.38-.38,1.38-1.01,0-.77-.63-1.08-1.8-1.66-1.07-.52-2.29-1.1-2.29-2.49,0-.84.63-2.12,2.5-2.12,1.05,0,1.92.35,2.31.63.18.14.21.32.09.54l-.17.33c-.12.23-.38.25-.56.14-.35-.21-.91-.47-1.66-.47-.89,0-1.19.51-1.19.89,0,.72.56.98,1.54,1.43,1.4.65,2.61,1.17,2.61,2.64,0,1.28-1.1,2.31-2.75,2.31-1.35,0-2.26-.59-2.68-.98Z"/>
    <path class="cls-1" d="M67.82,198.01c0-.56.42-.98.95-.98s.96.42.96.98c0,.51-.42.94-.96.94s-.95-.44-.95-.94ZM68.15,201.42c0-.19.17-.38.38-.38h.53c.19,0,.38.19.38.38v7.32c0,.21-.19.38-.38.38h-.53c-.21,0-.38-.17-.38-.38v-7.32Z"/>
    <path class="cls-1" d="M71.63,202.16c-.25,0-.4-.17-.4-.38v-.35c0-.23.16-.38.4-.38h1.07v-2.24c0-.21.19-.37.38-.38l.54-.04c.21-.02.37.17.37.38v2.28h2.38c.23,0,.4.16.4.38v.35c0,.21-.17.38-.4.38h-2.38v4.83c0,.84.26,1.15.72,1.15.75,0,1.26-.31,1.59-.52.32-.19.42-.04.51.16l.16.37c.11.26.07.39-.14.53-.35.25-1.19.65-2.28.65-1.54,0-1.85-.98-1.85-2.24v-4.92h-1.07Z"/>
    <path class="cls-1" d="M78.81,197.26c0-.19.17-.38.38-.38h.53c.19,0,.38.19.38.38v4.64s.95-1.03,2.57-1.03c2.01,0,2.92,1.24,2.92,3.61v4.27c0,.21-.19.38-.39.38h-.54c-.21,0-.39-.17-.39-.38v-4.27c0-1.54-.46-2.43-1.7-2.43-1.54,0-2.49,1.15-2.49,1.15v5.55c0,.21-.19.38-.38.38h-.53c-.21,0-.38-.17-.38-.38v-11.48Z"/>
    <path class="cls-1" d="M91.65,200.86c2.12,0,3.66,1.56,3.66,3.67,0,.14-.02.35-.03.49-.02.21-.19.35-.37.35h-5.88c.04,1.35,1.17,2.76,2.64,2.76,1.07,0,1.73-.37,2.19-.67.28-.19.4-.26.61.05l.21.3c.16.25.23.33-.07.56-.49.39-1.56.93-2.96.93-2.45,0-3.92-1.92-3.92-4.24s1.47-4.22,3.92-4.22ZM94.01,204.35c-.04-1.19-.98-2.31-2.36-2.31s-2.45,1.05-2.61,2.31h4.97Z"/>
    <path class="cls-1" d="M97.42,201.42c0-.19.17-.38.38-.38h.28c.16,0,.3.09.35.28l.14.58s.8-1.03,2.49-1.03c.61,0,1.61.09,1.42.65l-.23.63c-.09.26-.28.28-.47.19-.19-.09-.49-.23-.88-.23-1.56,0-2.19,1.03-2.19,1.03v5.6c0,.21-.19.38-.38.38h-.53c-.21,0-.38-.17-.38-.38v-7.32Z"/>
    <path class="cls-1" d="M106.7,204c.86,0,1.73.26,1.73.26.02-1.49-.18-2.22-1.33-2.22s-2.03.35-2.4.47c-.21.09-.31-.02-.38-.21l-.17-.47c-.07-.25.05-.35.25-.44.4-.18,1.45-.53,2.78-.53,2.07,0,2.5,1.01,2.5,3.4v4.48c0,.21-.17.38-.38.38h-.33c-.21,0-.28-.12-.33-.3l-.16-.54c-.42.42-1.26,1.03-2.5,1.03-1.42,0-2.5-1.01-2.5-2.64,0-1.54,1.16-2.68,3.24-2.68ZM106.19,208.14c1,0,1.87-.56,2.22-1.08v-1.64c-.26-.14-.91-.32-1.72-.32-1.12,0-1.96.54-1.96,1.58,0,.82.56,1.47,1.45,1.47Z"/>
    <path class="cls-1" d="M113.61,212.9c0,.21-.19.38-.38.38h-.51c-.21,0-.38-.17-.38-.38v-11.48c0-.19.17-.38.38-.38h.3c.19,0,.25.05.33.26l.12.38s.98-.82,2.43-.82c2.21,0,3.76,1.91,3.76,4.22s-1.59,4.24-3.82,4.24c-1.35,0-2.24-.67-2.24-.67v4.25ZM115.66,208.14c1.56,0,2.7-1.31,2.7-3.08,0-1.58-.98-3.03-2.61-3.03-1.3,0-2.14.98-2.14.98v4.43s.93.7,2.05.7Z"/>
    <path class="cls-1" d="M121.55,198.01c0-.56.42-.98.95-.98s.96.42.96.98c0,.51-.42.94-.96.94s-.95-.44-.95-.94ZM121.88,201.42c0-.19.17-.38.38-.38h.53c.19,0,.38.19.38.38v7.32c0,.21-.19.38-.38.38h-.53c-.21,0-.38-.17-.38-.38v-7.32Z"/>
    <path class="cls-1" d="M129.32,200.86c2.12,0,3.66,1.56,3.66,3.67,0,.14-.02.35-.04.49-.02.21-.19.35-.37.35h-5.88c.04,1.35,1.17,2.76,2.64,2.76,1.07,0,1.73-.37,2.19-.67.28-.19.4-.26.61.05l.21.3c.16.25.23.33-.07.56-.49.39-1.56.93-2.96.93-2.45,0-3.92-1.92-3.92-4.24s1.47-4.22,3.92-4.22ZM131.68,204.35c-.04-1.19-.98-2.31-2.36-2.31s-2.45,1.05-2.61,2.31h4.97Z"/>
    <path class="cls-1" d="M141.6,202.58v-.04l-.42-.46c-.68-.72-1.22-1.5-1.22-2.55,0-1.33.98-2.84,3.1-2.84,1.89,0,2.96,1.24,2.96,2.7,0,1.56-1.58,2.73-2.59,3.36l2.89,2.89c.46-.93.7-2,.7-3.12,0-.38.14-.4.4-.4h.42c.37,0,.33.26.33.4,0,1.35-.38,2.78-1.03,3.94l1.68,1.68c.21.23.35.4-.02.81l-.21.19c-.21.19-.47.23-.73-.05l-1.49-1.54c-.94,1.07-2.24,1.75-3.82,1.75-2.21,0-3.38-1.5-3.38-3.22,0-1.89,1.49-2.94,2.43-3.5ZM142.6,208.21c1.21,0,2.24-.58,2.99-1.49l-3.24-3.4c-.8.49-1.96,1.38-1.96,2.77,0,1.22.98,2.12,2.21,2.12ZM144.79,199.43c0-.84-.65-1.7-1.84-1.7s-1.82.82-1.82,1.84c0,.75.46,1.35,1.12,2l.38.38c.79-.47,2.15-1.26,2.15-2.52Z"/>
    <path class="cls-1" d="M155.44,197.21c0-.17.14-.33.33-.33h4.53c2.1,0,3.82,1.64,3.82,3.73,0,1.61-1.07,2.96-2.59,3.57l2.4,4.45c.12.23,0,.51-.3.51h-.84c-.21,0-.3-.09-.39-.26l-2.27-4.53h-3.34v4.46c0,.18-.16.33-.33.33h-.68c-.19,0-.33-.16-.33-.33v-11.59ZM160.22,203.17c1.35,0,2.52-1.12,2.52-2.56,0-1.33-1.17-2.47-2.52-2.47h-3.4v5.02h3.4Z"/>
    <path class="cls-1" d="M169.48,200.86c2.12,0,3.66,1.56,3.66,3.67,0,.14-.02.35-.03.49-.02.21-.19.35-.37.35h-5.88c.04,1.35,1.17,2.76,2.64,2.76,1.07,0,1.73-.37,2.19-.67.28-.19.4-.26.61.05l.21.3c.16.25.23.33-.07.56-.49.39-1.56.93-2.96.93-2.45,0-3.92-1.92-3.92-4.24s1.47-4.22,3.92-4.22ZM171.84,204.35c-.04-1.19-.98-2.31-2.36-2.31s-2.45,1.05-2.61,2.31h4.97Z"/>
    <path class="cls-1" d="M174.22,201.49c-.12-.25,0-.46.3-.46h.61c.19,0,.31.09.37.23l2.5,5.95h.04l2.66-5.95c.05-.14.17-.23.32-.23h.56c.32,0,.42.21.32.46l-3.48,7.61c-.04.11-.14.21-.33.21h-.11c-.17,0-.3-.1-.33-.21l-3.41-7.61Z"/>
    <path class="cls-1" d="M186.15,204c.86,0,1.73.26,1.73.26.02-1.49-.18-2.22-1.33-2.22s-2.03.35-2.4.47c-.21.09-.31-.02-.38-.21l-.17-.47c-.07-.25.05-.35.25-.44.4-.18,1.45-.53,2.78-.53,2.07,0,2.5,1.01,2.5,3.4v4.48c0,.21-.17.38-.38.38h-.33c-.21,0-.28-.12-.33-.3l-.16-.54c-.42.42-1.26,1.03-2.5,1.03-1.42,0-2.5-1.01-2.5-2.64,0-1.54,1.16-2.68,3.24-2.68ZM185.64,208.14c1,0,1.87-.56,2.22-1.08v-1.64c-.26-.14-.91-.32-1.72-.32-1.12,0-1.96.54-1.96,1.58,0,.82.56,1.47,1.45,1.47Z"/>
    <path class="cls-1" d="M191.87,197.26c0-.19.17-.38.38-.38h.52c.19,0,.39.19.39.38v11.48c0,.21-.19.38-.39.38h-.52c-.21,0-.38-.17-.38-.38v-11.48Z"/>
    <path class="cls-1" d="M195.65,198.01c0-.56.42-.98.95-.98s.96.42.96.98c0,.51-.42.94-.96.94s-.95-.44-.95-.94ZM195.98,201.42c0-.19.17-.38.38-.38h.53c.19,0,.38.19.38.38v7.32c0,.21-.19.38-.38.38h-.53c-.21,0-.38-.17-.38-.38v-7.32Z"/>
    <path class="cls-1" d="M203.33,200.86c1.33,0,2.24.51,2.24.51v-4.11c0-.19.17-.38.38-.38h.49c.21,0,.4.19.4.38v11.48c0,.21-.19.38-.4.38h-.31c-.18,0-.28-.14-.35-.33l-.1-.52s-1.03,1.05-2.56,1.05c-2.05,0-3.62-1.94-3.62-4.25s1.4-4.2,3.83-4.2ZM203.28,208.14c1.45,0,2.29-1.29,2.29-1.29v-4.36s-.95-.46-2.07-.46c-1.73,0-2.7,1.43-2.7,3.04s1,3.06,2.47,3.06Z"/>
    <path class="cls-1" d="M212.19,204c.86,0,1.73.26,1.73.26.02-1.49-.18-2.22-1.33-2.22s-2.03.35-2.4.47c-.21.09-.31-.02-.38-.21l-.17-.47c-.07-.25.05-.35.25-.44.4-.18,1.45-.53,2.78-.53,2.07,0,2.5,1.01,2.5,3.4v4.48c0,.21-.17.38-.38.38h-.33c-.21,0-.28-.12-.33-.3l-.16-.54c-.42.42-1.26,1.03-2.5,1.03-1.42,0-2.5-1.01-2.5-2.64,0-1.54,1.16-2.68,3.24-2.68ZM211.68,208.14c1,0,1.87-.56,2.22-1.08v-1.64c-.26-.14-.91-.32-1.72-.32-1.12,0-1.96.54-1.96,1.58,0,.82.56,1.47,1.45,1.47Z"/>
    <path class="cls-1" d="M217.28,202.16c-.25,0-.4-.17-.4-.38v-.35c0-.23.16-.38.4-.38h1.07v-2.24c0-.21.19-.37.38-.38l.54-.04c.21-.02.37.17.37.38v2.28h2.38c.23,0,.4.16.4.38v.35c0,.21-.17.38-.4.38h-2.38v4.83c0,.84.26,1.15.72,1.15.75,0,1.26-.31,1.59-.52.32-.19.42-.04.51.16l.16.37c.1.26.07.39-.14.53-.35.25-1.19.65-2.28.65-1.54,0-1.85-.98-1.85-2.24v-4.92h-1.07Z"/>
    <path class="cls-1" d="M224.12,198.01c0-.56.42-.98.95-.98s.96.42.96.98c0,.51-.42.94-.96.94s-.95-.44-.95-.94ZM224.45,201.42c0-.19.17-.38.38-.38h.53c.19,0,.38.19.38.38v7.32c0,.21-.19.38-.38.38h-.53c-.21,0-.38-.17-.38-.38v-7.32Z"/>
    <path class="cls-1" d="M231.89,200.86c2.12,0,3.66,1.56,3.66,3.67,0,.14-.02.35-.04.49-.02.21-.19.35-.37.35h-5.88c.04,1.35,1.17,2.76,2.64,2.76,1.07,0,1.73-.37,2.19-.67.28-.19.4-.26.61.05l.21.3c.16.25.23.33-.07.56-.49.39-1.56.93-2.96.93-2.45,0-3.92-1.92-3.92-4.24s1.47-4.22,3.92-4.22ZM234.25,204.35c-.04-1.19-.98-2.31-2.36-2.31s-2.45,1.05-2.61,2.31h4.97Z"/>
  </g>
  <path class="cls-1" d="M186.91,25.1c-38.86,0-73.05,20.36-92.47,50.97h12.09c18.1-24.81,47.39-40.97,80.38-40.97,54.84,0,99.45,44.61,99.45,99.45s-44.61,99.45-99.45,99.45c-19,0-36.77-5.36-51.89-14.64h-17.22c18.86,15.4,42.92,24.64,69.11,24.64,60.35,0,109.45-49.1,109.45-109.45S247.25,25.1,186.91,25.1Z"/>
  <g>
    <path class="cls-1" d="M111.53,107.73c0-5.07,4-9.21,9.08-9.21s9.34,4.14,9.34,9.21-4.14,9.21-9.34,9.21-9.08-4.14-9.08-9.21ZM112.73,138.43c0-1.47,1.2-2.54,2.54-2.54h11.08c1.33,0,2.54,1.07,2.54,2.54v48.32c0,1.33-1.2,2.54-2.54,2.54h-11.08c-1.33,0-2.54-1.2-2.54-2.54v-48.32Z"/>
    <path class="cls-1" d="M144.9,138.43c0-1.47,1.2-2.54,2.54-2.54h5.07c1.2,0,1.87.67,2.27,1.6l1.87,4.94c2-2.14,8.54-7.88,18.82-7.88,16.95,0,23.76,12.68,23.76,26.56v25.63c0,1.33-1.2,2.54-2.54,2.54h-10.95c-1.47,0-2.54-1.2-2.54-2.54v-26.43c0-6.94-3.6-11.35-10.01-11.35-6.94,0-11.21,4.8-12.55,8.41v29.37c0,1.87-.8,2.54-3.34,2.54h-9.88c-1.33,0-2.54-1.2-2.54-2.54v-48.32Z"/>
    <path class="cls-1" d="M237.4,134.56c13.75,0,24.96,10.41,24.96,24.83,0,.93-.13,2.67-.27,3.6-.13,1.33-1.33,2.27-2.54,2.27h-34.17c.4,5.47,5.07,11.61,12.81,11.61,4.14,0,8.01-1.6,10.41-3.34,1.33-.8,2.54-1.07,3.47,0l5.47,6.27c.93.93,1.2,2.4-.13,3.47-4.41,4.14-11.21,7.34-19.89,7.34-16.02,0-27.36-12.68-27.36-28.03s11.35-28.03,27.23-28.03ZM246.74,155.92c-.4-4.94-4.67-9.08-9.74-9.08-5.34,0-9.74,4-10.41,9.08h20.16Z"/>
  </g>
  <g>
    <path class="cls-2" d="M156.25,80.81c.05-.43.38-.81.97-.81h.86c.43,0,.75.21.91.54l11.82,25.36h.16l11.82-25.36c.16-.32.43-.54.91-.54h.86c.59,0,.91.38.97.81l6.34,36.1c.16.75-.27,1.24-.97,1.24h-4.89c-.48,0-.91-.43-1.02-.81l-3.17-20.36h-.16l-9.4,21.11c-.11.32-.43.59-.91.59h-.97c-.48,0-.75-.27-.91-.59l-9.51-21.11h-.16l-3.12,20.36c-.05.38-.48.81-.97.81h-4.83c-.7,0-1.13-.48-1.02-1.24l6.39-36.1Z"/>
    <path class="cls-2" d="M196.49,85.33c0-2.04,1.61-3.71,3.65-3.71s3.76,1.67,3.76,3.71-1.67,3.71-3.76,3.71-3.65-1.67-3.65-3.71ZM196.97,97.68c0-.59.48-1.02,1.02-1.02h4.46c.54,0,1.02.43,1.02,1.02v19.45c0,.54-.48,1.02-1.02,1.02h-4.46c-.54,0-1.02-.48-1.02-1.02v-19.45Z"/>
    <path class="cls-2" d="M209.92,97.68c0-.59.48-1.02,1.02-1.02h4.51c.54,0,1.02.43,1.02,1.02v26.27c0,7.09-4.3,10.85-9.99,10.85-2.85,0-5.43-1.24-6.34-2.1-.38-.27-.43-.86-.21-1.24l1.77-3.44c.21-.43.81-.54,1.29-.27.7.43,1.99,1.07,3.17,1.07,2.42,0,3.76-1.77,3.76-4.89v-26.27ZM209.49,85.33c0-2.04,1.61-3.71,3.65-3.71s3.76,1.67,3.76,3.71-1.67,3.71-3.76,3.71-3.65-1.67-3.65-3.71Z"/>
    <path class="cls-2" d="M222.92,97.68c0-.59.48-1.02,1.02-1.02h2.04c.48,0,.75.27.91.64l.75,1.99c.81-.86,3.44-3.17,7.58-3.17,6.82,0,9.56,5.1,9.56,10.69v10.32c0,.54-.48,1.02-1.02,1.02h-4.41c-.59,0-1.02-.48-1.02-1.02v-10.64c0-2.79-1.45-4.57-4.03-4.57-2.79,0-4.51,1.93-5.05,3.38v11.82c0,.75-.32,1.02-1.34,1.02h-3.98c-.54,0-1.02-.48-1.02-1.02v-19.45Z"/>
  </g>
  <path class="cls-1" d="M73.08,125.62l27.52-37.23c1.17-1.35.27-3.23-1.44-3.23h-8.97c-.81,0-1.35.45-1.7.9l-21.27,30.2,5.87,9.36Z"/>
  <path class="cls-1" d="M48.58,93.99l-.1-14.37h9.27v-2.17h-9.29l-.03-3.66h2.34v-1.61l-8.05-2.93h-6.29l-8.49,2.78v2.63h1.9v14.92h-5.12v4.39h4.1v95.3h18.73v-74.3l44.63,74.3h15.36l-58.97-95.3ZM31.09,74.68h16.1v2.67l-16.1.11v-2.78ZM42.8,185.08h-2.78l.22-78.72h2.56v78.72ZM47.28,92.83h-21.53v-1.9h6.64c-.16.61-.25,1.24-.25,1.89h2c0-.67.13-1.3.35-1.89h10.14c.22.59.35,1.23.35,1.89h2c0-.66-.09-1.29-.25-1.89h.56v1.9ZM35.2,89.61c.99-1.34,2.57-2.21,4.36-2.21s3.37.87,4.36,2.21h-8.71ZM46.24,89.61c-1.2-2.49-3.74-4.21-6.68-4.21s-5.48,1.72-6.68,4.21h-1.79v-9.89l16.1-.1.09,9.99h-1.04Z"/>
</svg>